<svg xmlns="http://www.w3.org/2000/svg" xmlns:xlink="http://www.w3.org/1999/xlink" width="500" zoomAndPan="magnify" viewBox="0 0 375 374.999991" height="500" preserveAspectRatio="xMidYMid meet" version="1.0"><defs><g/><clipPath id="9f67706fef"><path d="M 0 153.511719 L 194 153.511719 L 194 291.457031 L 0 291.457031 Z M 0 153.511719 " clip-rule="nonzero"/></clipPath><clipPath id="72e0f894f6"><path d="M 33 83.203125 L 110 83.203125 L 110 171 L 33 171 Z M 33 83.203125 " clip-rule="nonzero"/></clipPath><clipPath id="4839859368"><path d="M 99 169.777344 L 374.972656 169.777344 L 374.972656 204.1875 L 99 204.1875 Z M 99 169.777344 " clip-rule="nonzero"/></clipPath><clipPath id="a06eba4f27"><path d="M 37.554688 264.253906 L 374.972656 264.253906 L 374.972656 273 L 37.554688 273 Z M 37.554688 264.253906 " clip-rule="nonzero"/></clipPath></defs><rect x="-37.5" width="450" fill="#ffffff" y="-37.499999" height="449.999989" fill-opacity="1"/><rect x="-37.5" width="450" fill="#ffffff" y="-37.499999" height="449.999989" fill-opacity="1"/><rect x="-37.5" width="450" fill="#4b4b4b" y="-37.499999" height="449.999989" fill-opacity="1"/><g clip-path="url(#9f67706fef)"><path fill="#ffbd59" d="M 121.628906 165.90625 C 149.375 165.90625 174.65625 173.71875 193.667969 186.535156 C 174.226562 166.695312 142.648438 153.789062 106.992188 153.789062 C 47.902344 153.789062 0 189.222656 0 232.933594 C 0 256.125 13.476562 276.980469 34.953125 291.457031 C 22.175781 278.417969 14.636719 262.390625 14.636719 245.054688 C 14.636719 201.34375 62.539062 165.90625 121.628906 165.90625 " fill-opacity="1" fill-rule="nonzero"/></g><g clip-path="url(#72e0f894f6)"><path fill="#ff914d" d="M 76.472656 126.421875 L 88.804688 150.855469 C 94.761719 150.125 100.835938 149.746094 106.992188 149.746094 C 107.886719 149.746094 108.785156 149.761719 109.679688 149.777344 L 76.457031 83.433594 L 33.023438 170.0625 C 41.421875 164.117188 51.132812 159.175781 61.796875 155.492188 L 76.472656 126.421875 " fill-opacity="1" fill-rule="nonzero"/></g><g clip-path="url(#4839859368)"><path fill="#ffbd59" d="M 133.105469 196.179688 L 119.871094 169.960938 C 112.832031 170.046875 105.96875 170.652344 99.339844 171.722656 L 111.6875 196.179688 L 115.726562 204.1875 L 370.972656 204.1875 C 373.183594 204.1875 374.976562 202.394531 374.976562 200.183594 C 374.976562 197.972656 373.183594 196.179688 370.972656 196.179688 L 133.105469 196.179688 " fill-opacity="1" fill-rule="nonzero"/></g><g clip-path="url(#a06eba4f27)"><path fill="#ffbd59" d="M 41.660156 272.632812 L 370.972656 272.632812 C 373.183594 272.632812 374.976562 270.839844 374.976562 268.628906 C 374.976562 266.417969 373.183594 264.625 370.972656 264.625 L 41.660156 264.625 C 39.449219 264.625 37.65625 266.417969 37.65625 268.628906 C 37.65625 270.839844 39.449219 272.632812 41.660156 272.632812 " fill-opacity="1" fill-rule="nonzero"/></g><g fill="#ffbd59" fill-opacity="1"><g transform="translate(170.128837, 189.117757)"><g><path d="M -2.984375 -1.8125 C -2.984375 -1.132812 -2.488281 -0.796875 -1.5 -0.796875 C -0.519531 -0.796875 0.523438 -1.054688 1.640625 -1.578125 C 2.765625 -2.109375 3.875 -2.769531 4.96875 -3.5625 C 6.0625 -4.363281 7.117188 -5.238281 8.140625 -6.1875 C 9.171875 -7.144531 10.109375 -8.054688 10.953125 -8.921875 L 13.078125 -11.203125 C 13.648438 -11.859375 14.039062 -12.289062 14.25 -12.5 L 14.859375 -11.96875 C 14.628906 -11.738281 14.210938 -11.285156 13.609375 -10.609375 C 13.003906 -9.929688 12.265625 -9.148438 11.390625 -8.265625 C 10.523438 -7.390625 9.550781 -6.457031 8.46875 -5.46875 C 7.394531 -4.488281 6.273438 -3.585938 5.109375 -2.765625 C 2.378906 -0.878906 -0.0078125 0.0625 -2.0625 0.0625 C -2.925781 0.0625 -3.640625 -0.171875 -4.203125 -0.640625 C -4.765625 -1.117188 -5.046875 -1.628906 -5.046875 -2.171875 C -5.046875 -2.710938 -5.019531 -3.144531 -4.96875 -3.46875 C -4.914062 -3.800781 -4.804688 -4.175781 -4.640625 -4.59375 C -4.484375 -5.019531 -4.25 -5.515625 -3.9375 -6.078125 C -3.632812 -6.640625 -3.222656 -7.320312 -2.703125 -8.125 L 2 -15.078125 L 25.78125 -49.078125 C 27.257812 -48.867188 28.6875 -48.867188 30.0625 -49.078125 C 10.488281 -21.878906 0.351562 -7.757812 -0.34375 -6.71875 C -1.039062 -5.6875 -1.550781 -4.90625 -1.875 -4.375 C -2.207031 -3.851562 -2.453125 -3.429688 -2.609375 -3.109375 C -2.859375 -2.617188 -2.984375 -2.1875 -2.984375 -1.8125 Z M -2.984375 -1.8125 "/></g></g></g><g fill="#ffbd59" fill-opacity="1"><g transform="translate(184.15773, 189.117757)"><g><path d="M 16.28125 -27.8125 C 15.988281 -27.550781 15.65625 -27.34375 15.28125 -27.1875 C 14.914062 -27.03125 14.5 -26.953125 14.03125 -26.953125 C 13.5625 -26.953125 13.15625 -27.128906 12.8125 -27.484375 C 12.476562 -27.847656 12.3125 -28.253906 12.3125 -28.703125 C 12.3125 -29.160156 12.390625 -29.5625 12.546875 -29.90625 C 12.710938 -30.257812 12.941406 -30.566406 13.234375 -30.828125 C 13.828125 -31.441406 14.476562 -31.75 15.1875 -31.75 C 15.894531 -31.75 16.414062 -31.554688 16.75 -31.171875 C 17.09375 -30.796875 17.265625 -30.382812 17.265625 -29.9375 C 17.265625 -29.488281 17.175781 -29.085938 17 -28.734375 C 16.820312 -28.390625 16.582031 -28.082031 16.28125 -27.8125 Z M -3.265625 -1.765625 C -3.265625 -1.117188 -2.65625 -0.796875 -1.4375 -0.796875 C -0.226562 -0.796875 0.910156 -1.070312 1.984375 -1.625 C 3.054688 -2.1875 4.140625 -2.878906 5.234375 -3.703125 C 6.335938 -4.535156 7.40625 -5.445312 8.4375 -6.4375 L 11.203125 -9.203125 C 12.023438 -10.066406 12.703125 -10.8125 13.234375 -11.4375 C 13.765625 -12.0625 14.082031 -12.421875 14.1875 -12.515625 L 14.796875 -11.96875 C 14.597656 -11.757812 14.210938 -11.320312 13.640625 -10.65625 C 13.078125 -9.988281 12.375 -9.207031 11.53125 -8.3125 C 10.695312 -7.425781 9.753906 -6.488281 8.703125 -5.5 C 7.660156 -4.519531 6.566406 -3.617188 5.421875 -2.796875 C 2.773438 -0.890625 0.457031 0.0625 -1.53125 0.0625 C -2.8125 0.0625 -3.828125 -0.164062 -4.578125 -0.625 C -5.335938 -1.09375 -5.71875 -1.625 -5.71875 -2.21875 C -5.71875 -2.8125 -5.65625 -3.34375 -5.53125 -3.8125 C -5.414062 -4.28125 -5.191406 -4.84375 -4.859375 -5.5 C -4.535156 -6.164062 -4.078125 -6.9375 -3.484375 -7.8125 C -2.898438 -8.695312 -2.140625 -9.753906 -1.203125 -10.984375 C -0.273438 -12.210938 0.851562 -13.640625 2.1875 -15.265625 L 6.921875 -20.859375 C 7.171875 -20.796875 7.675781 -20.765625 8.4375 -20.765625 L 9.875 -20.765625 C 10.40625 -20.765625 10.835938 -20.785156 11.171875 -20.828125 C 4.378906 -12.722656 0.5625 -8.113281 -0.28125 -7 C -1.132812 -5.882812 -1.769531 -5.007812 -2.1875 -4.375 C -2.90625 -3.28125 -3.265625 -2.410156 -3.265625 -1.765625 Z M -3.265625 -1.765625 "/></g></g></g><g fill="#ffbd59" fill-opacity="1"><g transform="translate(198.094336, 189.117757)"><g><path d="M 6.3125 5.171875 C 14.925781 0.816406 22.320312 -5.070312 28.5 -12.5 L 29.109375 -11.96875 C 22.566406 -4.050781 14.578125 2.128906 5.140625 6.578125 L -0.34375 13.140625 C -4.957031 18.390625 -8.707031 21.679688 -11.59375 23.015625 C -13.382812 23.816406 -15.445312 24.21875 -17.78125 24.21875 C -19.070312 24.21875 -20.003906 23.773438 -20.578125 22.890625 C -20.972656 22.296875 -20.984375 21.570312 -20.609375 20.71875 C -20.242188 19.875 -19.738281 19.101562 -19.09375 18.40625 C -18.445312 17.707031 -17.578125 16.957031 -16.484375 16.15625 C -15.398438 15.351562 -14.050781 14.488281 -12.4375 13.5625 C -9.113281 11.675781 -4.640625 9.546875 0.984375 7.171875 L 13.390625 -8.25 L 13.140625 -8.375 C 9.390625 -4.101562 6.023438 -1.445312 3.046875 -0.40625 C 2.160156 -0.09375 1.398438 0.0625 0.765625 0.0625 C -1.710938 0.0625 -2.992188 -1.28125 -3.078125 -3.96875 C -3.078125 -7.144531 -1.859375 -10.160156 0.578125 -13.015625 C 4.992188 -18.390625 9.796875 -21.078125 14.984375 -21.078125 C 16.335938 -21.078125 17.40625 -20.851562 18.1875 -20.40625 C 19.457031 -19.6875 19.742188 -18.460938 19.046875 -16.734375 L 21.9375 -20.46875 C 22.53125 -20.300781 23.070312 -20.21875 23.5625 -20.21875 C 24.757812 -20.21875 25.625 -20.257812 26.15625 -20.34375 Z M 18.546875 -18.28125 C 18.515625 -19.507812 17.59375 -20.125 15.78125 -20.125 C 13.851562 -20.125 11.101562 -18.441406 7.53125 -15.078125 C 6.320312 -13.910156 5.019531 -12.453125 3.625 -10.703125 C 0.820312 -7.222656 -0.554688 -4.476562 -0.515625 -2.46875 C -0.484375 -1.863281 -0.351562 -1.441406 -0.125 -1.203125 C 0.101562 -0.972656 0.488281 -0.859375 1.03125 -0.859375 C 1.570312 -0.859375 2.273438 -1.023438 3.140625 -1.359375 C 4.003906 -1.703125 4.988281 -2.273438 6.09375 -3.078125 C 8.65625 -4.898438 11.363281 -7.472656 14.21875 -10.796875 L 16.609375 -13.71875 C 17.898438 -15.601562 18.546875 -17.125 18.546875 -18.28125 Z M -0.09375 8.5 C -10.570312 13.09375 -16.796875 16.722656 -18.765625 19.390625 C -19.460938 20.347656 -19.8125 21.269531 -19.8125 22.15625 C -19.8125 22.382812 -19.617188 22.644531 -19.234375 22.9375 C -18.859375 23.238281 -18.332031 23.390625 -17.65625 23.390625 C -16.976562 23.390625 -16.300781 23.300781 -15.625 23.125 C -14.945312 22.945312 -14.238281 22.644531 -13.5 22.21875 C -12.769531 21.800781 -11.972656 21.226562 -11.109375 20.5 C -10.242188 19.78125 -9.269531 18.867188 -8.1875 17.765625 C -7.113281 16.671875 -5.910156 15.363281 -4.578125 13.84375 Z M -0.09375 8.5 "/></g></g></g><g fill="#ffbd59" fill-opacity="1"><g transform="translate(226.336713, 189.117757)"><g><path d="M 12.28125 0.0625 C 10.226562 0.0625 9.203125 -0.570312 9.203125 -1.84375 C 9.203125 -2.894531 9.796875 -4.207031 10.984375 -5.78125 L 12.921875 -8.25 L 12.609375 -8.375 C 9.171875 -4.125 5.921875 -1.457031 2.859375 -0.375 C 2.015625 -0.0820312 1.285156 0.0625 0.671875 0.0625 C -1.847656 0.0625 -3.109375 -1.28125 -3.109375 -3.96875 C -3.109375 -7.125 -1.847656 -10.140625 0.671875 -13.015625 C 4.410156 -17.359375 8.164062 -19.929688 11.9375 -20.734375 C 13.0625 -20.960938 14.023438 -21.078125 14.828125 -21.078125 C 15.628906 -21.078125 16.257812 -21.019531 16.71875 -20.90625 C 17.1875 -20.789062 17.59375 -20.632812 17.9375 -20.4375 C 18.675781 -19.957031 19.046875 -19.375 19.046875 -18.6875 C 19.046875 -18 18.921875 -17.347656 18.671875 -16.734375 L 21.6875 -20.46875 C 22.238281 -20.300781 22.753906 -20.21875 23.234375 -20.21875 C 24.441406 -20.21875 25.3125 -20.257812 25.84375 -20.34375 L 15.484375 -7.84375 C 13.015625 -4.96875 11.78125 -2.945312 11.78125 -1.78125 C 11.78125 -1.125 12.171875 -0.796875 12.953125 -0.796875 C 13.734375 -0.796875 14.628906 -1.03125 15.640625 -1.5 C 16.660156 -1.976562 17.671875 -2.585938 18.671875 -3.328125 C 19.679688 -4.066406 20.660156 -4.882812 21.609375 -5.78125 C 22.566406 -6.6875 23.453125 -7.566406 24.265625 -8.421875 C 25.078125 -9.285156 25.789062 -10.085938 26.40625 -10.828125 L 27.875 -12.5 L 28.515625 -11.96875 L 26.953125 -10.1875 C 21.046875 -3.351562 16.15625 0.0625 12.28125 0.0625 Z M 3.75 -11.015625 C 0.863281 -7.503906 -0.578125 -4.632812 -0.578125 -2.40625 C -0.578125 -1.375 -0.117188 -0.859375 0.796875 -0.859375 C 3.796875 -0.859375 8.113281 -4.171875 13.75 -10.796875 L 16.34375 -13.90625 C 17.570312 -15.769531 18.1875 -17.125 18.1875 -17.96875 C 18.1875 -19.40625 17.46875 -20.125 16.03125 -20.125 C 14.082031 -20.125 11.28125 -18.460938 7.625 -15.140625 C 6.375 -13.992188 5.082031 -12.617188 3.75 -11.015625 Z M 3.75 -11.015625 "/></g></g></g><g fill="#ffbd59" fill-opacity="1"><g transform="translate(253.994562, 189.117757)"><g><path d="M 5.328125 -2.40625 C 5.328125 -1.457031 5.726562 -0.984375 6.53125 -0.984375 C 7.34375 -0.984375 8.234375 -1.226562 9.203125 -1.71875 C 10.179688 -2.21875 11.175781 -2.84375 12.1875 -3.59375 C 13.207031 -4.351562 14.210938 -5.195312 15.203125 -6.125 L 17.875 -8.796875 C 18.695312 -9.640625 19.40625 -10.398438 20 -11.078125 L 21.265625 -12.5 L 21.875 -11.96875 C 21.488281 -11.625 20.96875 -11.082031 20.3125 -10.34375 L 18.09375 -7.875 C 13.082031 -2.582031 8.773438 0.0625 5.171875 0.0625 C 4.003906 0.0625 3.066406 -0.222656 2.359375 -0.796875 C 1.648438 -1.367188 1.296875 -2.140625 1.296875 -3.109375 C 1.296875 -6.160156 5.742188 -10.671875 14.640625 -16.640625 C 10.296875 -17.359375 7.289062 -18.085938 5.625 -18.828125 C 4.269531 -16.035156 2.191406 -13.195312 -0.609375 -10.3125 C -1.265625 -9.632812 -1.671875 -9.265625 -1.828125 -9.203125 C -1.984375 -9.140625 -2.082031 -9.09375 -2.125 -9.0625 C -2.164062 -9.03125 -2.195312 -9.085938 -2.21875 -9.234375 C -2.238281 -9.378906 -2.238281 -9.484375 -2.21875 -9.546875 C -2.195312 -9.617188 -2.15625 -9.695312 -2.09375 -9.78125 C -1.125 -10.875 -0.234375 -11.921875 0.578125 -12.921875 C 2.492188 -15.304688 3.898438 -17.421875 4.796875 -19.265625 C 4.054688 -19.734375 3.632812 -20.234375 3.53125 -20.765625 C 3.4375 -21.296875 3.441406 -21.789062 3.546875 -22.25 C 3.660156 -22.71875 3.84375 -23.132812 4.09375 -23.5 C 4.625 -24.300781 5.238281 -24.703125 5.9375 -24.703125 C 7.226562 -24.703125 7.875 -24.234375 7.875 -23.296875 C 7.875 -22.816406 7.78125 -22.414062 7.59375 -22.09375 L 7.046875 -21.140625 C 6.679688 -20.671875 6.5 -20.125 6.5 -19.5 C 6.5 -19.132812 7.28125 -18.785156 8.84375 -18.453125 C 10.414062 -18.128906 11.53125 -17.90625 12.1875 -17.78125 C 13.625 -17.519531 14.757812 -17.367188 15.59375 -17.328125 C 16.175781 -17.304688 16.46875 -17.148438 16.46875 -16.859375 C 16.46875 -16.671875 16.132812 -16.3125 15.46875 -15.78125 C 14.800781 -15.25 14.066406 -14.601562 13.265625 -13.84375 C 12.460938 -13.082031 11.679688 -12.285156 10.921875 -11.453125 C 10.160156 -10.628906 9.441406 -9.785156 8.765625 -8.921875 C 8.085938 -8.054688 7.492188 -7.226562 6.984375 -6.4375 C 5.878906 -4.707031 5.328125 -3.363281 5.328125 -2.40625 Z M 5.328125 -2.40625 "/></g></g></g><g fill="#ffbd59" fill-opacity="1"><g transform="translate(275.037901, 189.117757)"><g><path d="M -3.5 -0.578125 C -4.0625 -0.679688 -4.679688 -0.734375 -5.359375 -0.734375 C -6.523438 -0.734375 -7.488281 -0.632812 -8.25 -0.4375 L 25.8125 -49.078125 C 27.1875 -48.867188 28.613281 -48.867188 30.09375 -49.078125 L -0.4375 -6.703125 L -0.28125 -6.375 C 1.28125 -8.175781 2.726562 -9.773438 4.0625 -11.171875 L 7.71875 -14.859375 C 9.8125 -16.890625 11.503906 -18.328125 12.796875 -19.171875 C 14.742188 -20.441406 16.59375 -21.078125 18.34375 -21.078125 C 20.164062 -21.078125 21.3125 -20.421875 21.78125 -19.109375 C 22.707031 -16.566406 19.828125 -11.703125 13.140625 -4.515625 L 11.9375 -3.203125 C 11.28125 -2.460938 10.953125 -1.894531 10.953125 -1.5 C 10.953125 -1.300781 11.175781 -1.132812 11.625 -1 C 12.082031 -0.863281 12.71875 -0.796875 13.53125 -0.796875 C 14.351562 -0.796875 15.316406 -1.054688 16.421875 -1.578125 C 17.535156 -2.109375 18.613281 -2.769531 19.65625 -3.5625 C 20.707031 -4.363281 21.703125 -5.242188 22.640625 -6.203125 C 23.585938 -7.171875 24.4375 -8.085938 25.1875 -8.953125 C 25.9375 -9.816406 26.566406 -10.578125 27.078125 -11.234375 C 27.585938 -11.890625 27.9375 -12.3125 28.125 -12.5 L 28.796875 -11.96875 C 28.597656 -11.738281 28.222656 -11.285156 27.671875 -10.609375 C 27.128906 -9.929688 26.460938 -9.144531 25.671875 -8.25 C 24.890625 -7.363281 24 -6.425781 23 -5.4375 C 22 -4.457031 20.9375 -3.566406 19.8125 -2.765625 C 17.226562 -0.878906 14.878906 0.0625 12.765625 0.0625 C 11.085938 0.0625 9.847656 -0.398438 9.046875 -1.328125 C 8.796875 -1.609375 8.671875 -1.941406 8.671875 -2.328125 C 8.671875 -2.722656 8.726562 -3.171875 8.84375 -3.671875 C 8.957031 -4.179688 9.238281 -4.820312 9.6875 -5.59375 C 10.738281 -7.363281 12.125 -9.21875 13.84375 -11.15625 C 15.570312 -13.09375 16.710938 -14.410156 17.265625 -15.109375 C 17.816406 -15.804688 18.253906 -16.410156 18.578125 -16.921875 C 19.191406 -17.910156 19.5 -18.671875 19.5 -19.203125 C 19.5 -19.941406 19.019531 -20.3125 18.0625 -20.3125 C 16.769531 -20.3125 15.28125 -19.734375 13.59375 -18.578125 C 9.519531 -15.859375 4.765625 -11.113281 -0.671875 -4.34375 Z M -3.5 -0.578125 "/></g></g></g><g fill="#ff914d" fill-opacity="1"><g transform="translate(111.969835, 231.785988)"><g><path d="M 7.3125 -15.421875 C 8.875 -15.421875 10.210938 -15.140625 11.328125 -14.578125 C 12.453125 -14.015625 13.316406 -13.160156 13.921875 -12.015625 C 14.535156 -10.867188 14.84375 -9.429688 14.84375 -7.703125 C 14.84375 -5.972656 14.535156 -4.535156 13.921875 -3.390625 C 13.316406 -2.242188 12.453125 -1.390625 11.328125 -0.828125 C 10.210938 -0.273438 8.875 0 7.3125 0 L 2.328125 0 L 2.328125 -15.421875 Z M 7.140625 -1.546875 C 8.421875 -1.546875 9.484375 -1.742188 10.328125 -2.140625 C 11.171875 -2.535156 11.8125 -3.1875 12.25 -4.09375 C 12.6875 -5.007812 12.90625 -6.210938 12.90625 -7.703125 C 12.90625 -9.210938 12.6875 -10.414062 12.25 -11.3125 C 11.8125 -12.21875 11.171875 -12.867188 10.328125 -13.265625 C 9.484375 -13.671875 8.421875 -13.875 7.140625 -13.875 L 4.140625 -13.875 L 4.140625 -1.546875 Z M 7.140625 -1.546875 "/></g></g></g><g fill="#ff914d" fill-opacity="1"><g transform="translate(139.472554, 231.785988)"><g><path d="M 13.875 0 L 11.9375 0 L 10.515625 -4.234375 L 3.9375 -4.234375 L 2.515625 0 L 0.609375 0 L 5.984375 -15.421875 L 8.5 -15.421875 Z M 7.09375 -13.546875 L 4.453125 -5.75 L 10 -5.75 L 7.359375 -13.546875 Z M 7.09375 -13.546875 "/></g></g></g><g fill="#ff914d" fill-opacity="1"><g transform="translate(165.077603, 231.785988)"><g><path d="M 4.140625 0 L 2.328125 0 L 2.328125 -15.421875 L 4.140625 -15.421875 Z M 4.140625 0 "/></g></g></g><g fill="#ff914d" fill-opacity="1"><g transform="translate(182.680811, 231.785988)"><g><path d="M 2.328125 0 L 2.328125 -15.421875 L 7.921875 -15.421875 C 8.960938 -15.421875 9.832031 -15.25 10.53125 -14.90625 C 11.238281 -14.5625 11.765625 -14.078125 12.109375 -13.453125 C 12.460938 -12.835938 12.640625 -12.101562 12.640625 -11.25 C 12.640625 -10.289062 12.398438 -9.5 11.921875 -8.875 C 11.441406 -8.257812 10.695312 -7.796875 9.6875 -7.484375 L 9.6875 -7.265625 C 10.1875 -7.066406 10.59375 -6.753906 10.90625 -6.328125 C 11.226562 -5.910156 11.519531 -5.285156 11.78125 -4.453125 L 13.21875 0 L 11.34375 0 L 9.8125 -4.71875 C 9.625 -5.269531 9.410156 -5.703125 9.171875 -6.015625 C 8.929688 -6.335938 8.628906 -6.566406 8.265625 -6.703125 C 7.898438 -6.847656 7.4375 -6.921875 6.875 -6.921875 L 4.140625 -6.921875 L 4.140625 0 Z M 7.890625 -8.453125 C 8.847656 -8.453125 9.5625 -8.675781 10.03125 -9.125 C 10.507812 -9.570312 10.75 -10.253906 10.75 -11.171875 C 10.75 -12.078125 10.507812 -12.753906 10.03125 -13.203125 C 9.5625 -13.648438 8.847656 -13.875 7.890625 -13.875 L 4.140625 -13.875 L 4.140625 -8.453125 Z M 7.890625 -8.453125 "/></g></g></g><g fill="#ff914d" fill-opacity="1"><g transform="translate(208.075008, 231.785988)"><g><path d="M 4.140625 0 L 2.328125 0 L 2.328125 -15.421875 L 4.140625 -15.421875 Z M 4.140625 0 "/></g></g></g><g fill="#ff914d" fill-opacity="1"><g transform="translate(225.678215, 231.785988)"><g><path d="M 4.140625 -7.265625 L 4.140625 -1.5 L 12 -1.5 L 12 0 L 2.328125 0 L 2.328125 -15.421875 L 11.828125 -15.421875 L 11.828125 -13.921875 L 4.140625 -13.921875 L 4.140625 -8.765625 L 10.921875 -8.765625 L 10.921875 -7.265625 Z M 4.140625 -7.265625 "/></g></g></g><g fill="#ff914d" fill-opacity="1"><g transform="translate(249.817841, 231.785988)"><g><path d="M 6.734375 0.21875 C 5.765625 0.21875 4.894531 0.0859375 4.125 -0.171875 C 3.351562 -0.429688 2.710938 -0.773438 2.203125 -1.203125 C 1.691406 -1.640625 1.304688 -2.113281 1.046875 -2.625 L 2.046875 -3.828125 L 2.3125 -3.828125 C 3.269531 -2.210938 4.742188 -1.40625 6.734375 -1.40625 C 7.898438 -1.40625 8.765625 -1.648438 9.328125 -2.140625 C 9.890625 -2.628906 10.171875 -3.304688 10.171875 -4.171875 C 10.171875 -4.671875 10.078125 -5.097656 9.890625 -5.453125 C 9.703125 -5.804688 9.394531 -6.109375 8.96875 -6.359375 C 8.539062 -6.609375 7.957031 -6.820312 7.21875 -7 L 5.421875 -7.4375 C 4.078125 -7.757812 3.085938 -8.273438 2.453125 -8.984375 C 1.816406 -9.691406 1.5 -10.585938 1.5 -11.671875 C 1.5 -12.441406 1.691406 -13.125 2.078125 -13.71875 C 2.472656 -14.320312 3.050781 -14.789062 3.8125 -15.125 C 4.570312 -15.46875 5.476562 -15.640625 6.53125 -15.640625 C 7.695312 -15.640625 8.675781 -15.472656 9.46875 -15.140625 C 10.269531 -14.816406 10.910156 -14.328125 11.390625 -13.671875 L 10.5 -12.484375 L 10.234375 -12.484375 C 9.796875 -13.023438 9.273438 -13.421875 8.671875 -13.671875 C 8.066406 -13.929688 7.351562 -14.0625 6.53125 -14.0625 C 5.46875 -14.0625 4.660156 -13.851562 4.109375 -13.4375 C 3.566406 -13.019531 3.296875 -12.445312 3.296875 -11.71875 C 3.296875 -11.019531 3.492188 -10.460938 3.890625 -10.046875 C 4.296875 -9.640625 4.972656 -9.320312 5.921875 -9.09375 L 7.765625 -8.65625 C 9.265625 -8.300781 10.347656 -7.757812 11.015625 -7.03125 C 11.691406 -6.3125 12.03125 -5.382812 12.03125 -4.25 C 12.03125 -3.375 11.832031 -2.597656 11.4375 -1.921875 C 11.050781 -1.253906 10.460938 -0.726562 9.671875 -0.34375 C 8.878906 0.03125 7.898438 0.21875 6.734375 0.21875 Z M 6.734375 0.21875 "/></g></g></g></svg>